# xmcd
#
# Track frame offsets: 
#        150
#        25832
#        45321
#        79288
#        95345
#        119189
#        150885
#        192045
#        237791
#        297553
#
# Disc length: 4343 seconds
#
# Revision: 2
# Processed by: cddbd v1.5.2PL0 Copyright (c) Steve Scherf et al.
# Submitted via: ExactAudioCopy v1.1
#
DISCID=7b10f50a
DTITLE=Blues News - Fines Blues and Bluesrock
DYEAR=2011
DGENRE=Blues
TTITLE0=Todd Sharpville - If Love A Crime
TTITLE1=Lance Lopez - One Half Hour
TTITLE2=Dudley Taft - Have You Ever Loved A Woman
TTITLE3=Papaslide - What Are We Livin' For ....?
TTITLE4=John Lord Blues Project - When A Blind Man Cries (live)
TTITLE5=Roy Buchanan - Wayfaring Pilgrim (live)
TTITLE6=Mick Fleetwood Blues Band featuring Rick Vito - Black Magic Wo
TTITLE6=man (live)
TTITLE7=Miller Anderson Band - High Tide And High Water (live)
TTITLE8=Johnny Winter - Suzie Q (live)
TTITLE9=Lance Lopez - Lowdown Ways
EXTD=
EXTT0=
EXTT1=
EXTT2=
EXTT3=
EXTT4=
EXTT5=
EXTT6=
EXTT7=
EXTT8=
EXTT9=
PLAYORDER=
